<svg xmlns="http://www.w3.org/2000/svg" width="64" height="64" fill="none" viewBox="0 0 64 64" role="img" aria-labelledby="title desc">
  <title id="title">Atlas Realm</title>
  <desc id="desc">A folded map with a shared route.</desc>
  <rect width="64" height="64" fill="#102026" rx="14"/>
  <path fill="#f7f1dd" d="M16 13.5 29 9l19 5.5v35L35 54 16 48.5v-35Z"/>
  <path fill="#d9eadb" d="M29 9v35l-13 4.5v-35L29 9Z"/>
  <path fill="#f3d27a" d="M29 9 48 14.5v35L29 44V9Z"/>
  <path fill="#eef6f3" d="M35 19.2 48 14.5v35L35 54V19.2Z"/>
  <path stroke="#183038" stroke-linecap="round" stroke-linejoin="round" stroke-width="2.4" d="M16 13.5 29 9l19 5.5v35L35 54 16 48.5v-35Z"/>
  <path stroke="#183038" stroke-linecap="round" stroke-width="2.2" d="M29 9v35m6-24.8V54"/>
  <path stroke="#286f74" stroke-linecap="round" stroke-linejoin="round" stroke-width="4" d="M19.5 40c5-8.5 9.6-9.6 14-7.2 5.7 3 8.1-1 10.9-8.4"/>
  <path stroke="#fff8e6" stroke-linecap="round" stroke-linejoin="round" stroke-width="1.8" d="M19.5 40c5-8.5 9.6-9.6 14-7.2 5.7 3 8.1-1 10.9-8.4"/>
  <circle cx="19.5" cy="40" r="4.6" fill="#e85d45" stroke="#183038" stroke-width="2"/>
  <circle cx="44.4" cy="24.4" r="4.6" fill="#e85d45" stroke="#183038" stroke-width="2"/>
  <circle cx="32.9" cy="32.5" r="3.4" fill="#fff8e6" stroke="#183038" stroke-width="2"/>
</svg>
